<mxfile host="app.diagrams.net" modified="2024-06-27T14:51:35.876Z" agent="Mozilla/5.0 (X11; Linux x86_64) AppleWebKit/537.36 (KHTML, like Gecko) Chrome/125.0.0.0 Safari/537.36" version="24.6.3" etag="Q2Ugto1To9YMUUXM_Njb" type="github">
  <diagram name="Page-1" id="FS-X53wLMpwgcELaSW84">
    <mxGraphModel>
      <root>
        <mxCell id="0" />
        <mxCell id="1" parent="0" />
      </root>
    </mxGraphModel>
  </diagram>
</mxfile>
